<svg width="28" height="28" viewBox="0 0 28 28" fill="none" xmlns="http://www.w3.org/2000/svg">
<path d="M20.9346 21.4415C21.2158 21.714 21.6465 21.7316 21.9277 21.4415C22.2178 21.1427 22.2002 20.7208 21.9277 20.4484L7.02148 5.55092C6.74902 5.27846 6.29199 5.26967 6.01953 5.55092C5.75586 5.81459 5.75586 6.27162 6.01953 6.53529L20.9346 21.4415ZM14.0088 6.05189C12.4707 6.05189 11.082 6.31556 9.79004 6.74623L11.2139 8.17006C12.1016 7.92396 13.0156 7.77455 14.0088 7.77455C19.5986 7.77455 24.0371 12.6349 24.0371 13.6632C24.0371 14.3576 22.6309 16.1417 20.3896 17.548L21.708 18.8751C24.4678 17.0646 26.0762 14.7003 26.0762 13.6632C26.0762 11.8615 21.2246 6.05189 14.0088 6.05189ZM14.0088 21.2833C15.626 21.2833 17.1113 21.0021 18.4561 20.5363L17.0322 19.1124C16.083 19.3937 15.0811 19.5607 14.0088 19.5607C8.40137 19.5607 3.96289 14.8937 3.96289 13.6632C3.96289 13.0744 5.44824 11.1847 7.83008 9.70814L6.48535 8.36342C3.62012 10.1915 1.92383 12.6173 1.92383 13.6632C1.92383 15.465 6.88086 21.2833 14.0088 21.2833ZM18.377 15.3419C18.6055 14.8322 18.7285 14.2521 18.7285 13.6632C18.7285 11.0353 16.6279 8.95228 14.0088 8.95228C13.4023 8.95228 12.8398 9.07533 12.3213 9.28627L18.377 15.3419ZM14.0088 18.3829C14.6768 18.3829 15.3096 18.2247 15.8809 17.9523L9.70215 11.7736C9.4209 12.3449 9.27148 12.9865 9.27148 13.672C9.28027 16.2296 11.3721 18.3829 14.0088 18.3829Z" fill="#1C1C1E"/>
</svg>
