<svg width="28" height="28" viewBox="0 0 28 28" fill="none" xmlns="http://www.w3.org/2000/svg">
<path d="M14 22.7334C18.9658 22.7334 23.0791 18.6289 23.0791 13.6543C23.0791 8.68848 18.9658 4.5752 13.9912 4.5752C9.02539 4.5752 4.9209 8.68848 4.9209 13.6543C4.9209 18.6289 9.03418 22.7334 14 22.7334ZM14 21.3271C9.80762 21.3271 6.32715 17.8467 6.32715 13.6543C6.32715 9.6377 9.50879 6.28027 13.4639 5.99902C13.2529 6.20117 13.1826 6.43848 13.1562 6.77246C12.8838 6.71973 12.6113 6.69336 12.3916 6.69336C11.7588 6.69336 11.2314 7.0625 10.1592 7.71289C9.10449 8.35449 9.44727 9.875 10.5547 9.99805C9.00781 10.6309 8.07617 12.4238 8.07617 13.1182C8.07617 14.1025 9.6582 15.9922 10.7656 15.9922C11.3369 15.9922 11.9609 15.8779 12.4355 15.8164C12.6465 15.7812 12.7871 15.834 12.8574 16.001C12.9629 16.2383 13.0244 16.4844 13.0244 16.8975C13.0244 17.7061 12.6377 20.5625 14.5977 20.5625C15.9863 20.5625 17.0762 18.4883 17.8232 17.1348C18.4648 15.957 19.2471 14.8848 19.2471 14.0498C19.2471 13.7246 19.1855 13.4346 19.0449 13.1709C19.6514 13.1709 20.5303 12.7051 21.4707 11.9316C21.6025 12.4854 21.6729 13.0654 21.6729 13.6543C21.6729 17.8467 18.1924 21.3271 14 21.3271ZM14.0527 16.8359C14.0527 15.6934 13.5957 14.7529 12.541 14.7529C12.2949 14.7529 11.9434 14.8057 11.6533 14.8672C11.3281 14.9023 11.0381 14.9639 10.7656 14.9639C10.2207 14.9639 9.10449 13.5312 9.10449 13.1182C9.10449 12.4502 10.1768 10.7979 11.6797 10.7979C12.374 10.7979 12.9365 10.9121 13.499 11.0176C13.9648 11.1055 14.4395 11.1934 14.8965 11.1934C15.7754 11.1934 16.6895 10.7012 16.6895 10.0332C16.6895 9.06641 14.2109 8.31055 12.7959 8.31055C12.418 8.31055 11.8906 8.48633 10.8887 8.95215C10.625 9.0752 10.4229 8.74121 10.6865 8.5918C10.8008 8.52148 10.915 8.45117 11.0557 8.36328C11.6006 8.02051 12.1104 7.71289 12.3477 7.71289C12.5059 7.71289 12.6201 7.72168 12.8486 7.76562C13.0508 7.80078 13.2266 7.82715 13.332 7.82715C13.833 7.82715 14.167 7.51074 14.167 7.00098C14.167 6.68457 14.2637 6.55273 14.5977 6.39453L15.2393 6.08691C17.9639 6.54395 20.2314 8.46875 21.1895 11C20.6445 11.3867 19.3174 12.1514 19.0273 12.1514C18.8691 12.1514 18.6934 11.9932 18.2627 11.668C17.1904 10.8594 16.2061 12.2041 17.252 12.8896C18.0166 13.4082 18.2275 13.6104 18.2275 14.0498C18.2275 14.3223 18.0693 14.665 17.4805 15.667C17.3047 15.957 17.1113 16.291 16.918 16.6426C15.5557 19.1299 15.1865 19.5342 14.6855 19.5342C13.8418 19.5342 14.0527 18.4531 14.0527 16.8359ZM17.9727 9.13672C18.2188 9.13672 18.4209 8.96973 18.4209 8.64453C18.4209 8.30176 17.7881 7.80078 17.2783 7.80078C16.9355 7.80078 16.5225 7.90625 16.5225 8.24902C16.5225 8.60938 17.4717 9.13672 17.9727 9.13672ZM11.6797 9.76953C11.6445 9.76953 11.6006 9.77832 11.5566 9.77832C12.1719 9.4707 12.585 9.33887 12.7959 9.33887C13.3848 9.33887 15.6699 9.90137 15.6699 10.0244C15.6699 10.1299 15.3711 10.2178 14.9756 10.2178C14.334 10.2178 13.1123 9.76953 11.6797 9.76953Z" fill="#1C1C1E"/>
</svg>
