<svg width="22" height="20" viewBox="0 0 22 20" fill="none" xmlns="http://www.w3.org/2000/svg">
<path d="M0.250977 9.2146C0.250977 9.67163 0.602539 10.0671 1.16504 10.0671C1.4375 10.0671 1.68359 9.91772 1.90332 9.74194L2.90527 8.89819V17.072C2.90527 18.3728 3.6875 19.1462 5.03223 19.1462H16.9238C18.2598 19.1462 19.0508 18.3728 19.0508 17.072V8.85425L20.1055 9.74194C20.3164 9.91772 20.5625 10.0671 20.835 10.0671C21.3535 10.0671 21.749 9.74194 21.749 9.23218C21.749 8.93335 21.6348 8.69604 21.4062 8.50269L19.0508 6.51636V2.77222C19.0508 2.37671 18.7959 2.13062 18.4004 2.13062H17.1875C16.8008 2.13062 16.5371 2.37671 16.5371 2.77222V4.40698L12.2568 0.812256C11.4922 0.170654 10.5254 0.170654 9.76074 0.812256L0.602539 8.50269C0.365234 8.69604 0.250977 8.95972 0.250977 9.2146ZM13.5312 11.6404C13.5312 11.2273 13.2676 10.9636 12.8545 10.9636H9.16309C8.75 10.9636 8.47754 11.2273 8.47754 11.6404V17.3972H5.49805C4.95312 17.3972 4.6543 17.0896 4.6543 16.5359V7.43042L10.6221 2.42065C10.8682 2.20972 11.1494 2.20972 11.3955 2.42065L17.293 7.37769V16.5359C17.293 17.0896 16.9941 17.3972 16.4492 17.3972H13.5312V11.6404Z" fill="#1C1C1E"/>
</svg>
